<?xml version="1.0" encoding="utf-8"?>
<!-- Svg Vector Icons : http://www.onlinewebfonts.com/icon -->
<!DOCTYPE svg PUBLIC "-//W3C//DTD SVG 1.1//EN" "http://www.w3.org/Graphics/SVG/1.1/DTD/svg11.dtd">
<svg version="1.1" xmlns="http://www.w3.org/2000/svg" xmlns:xlink="http://www.w3.org/1999/xlink" x="0px" y="0px" viewBox="0 0 1000 1000" enable-background="new 0 0 1000 1000" xml:space="preserve">
<metadata> Svg Vector Icons : http://www.onlinewebfonts.com/icon </metadata>
<g><path d="M388.2,696l56.6-98l-56.6-98l56.6-98l-56.6-98l56.6-98l-56.6-98H275l-56.6,98l0.9,1.6H109.8h-3.5l-56.6,98l56.6,98l-56.6,98l56.6,98l-56.6,98l56.6,98h3.5h109.5L275,892h113.2l56.6-98L388.2,696z M217.8,406.7l54.8,95l-54.8,95H111.6l-54.8-95l54.8-95H217.8z M441.3,598l-54.8,95H276.9L223,599.6l55.8-96.6h107.6L441.3,598z M441.3,402l-54.8,95H276.9L223,403.6l55.8-96.6h107.6L441.3,402z M276.7,111h109.7l54.8,95l-54.8,95H276.9L223,207.6h-0.1l-0.9-1.6L276.7,111z M217.8,210.7l54.8,95l-54.8,95H111.6l-54.8-95l54.8-95H217.8z M53.3,305.6l54.8-95l0,0L53.3,305.6l54.8,95l0,0L53.3,305.6z M53.3,501.6l54.8-95l0,0L53.3,501.6l54.8,95l0,0L53.3,501.6z M108.1,792.6l-54.8-95l54.8-95l0,0l-54.8,95L108.1,792.6L108.1,792.6z M111.6,792.6l-54.8-95l54.8-95h106.2l54.8,95l-54.8,95H111.6z M386.4,889H276.7l-53.9-93.3h0.1l55.8-96.6h107.6l54.8,95L386.4,889z"/><path d="M893.7,402l56.6-98l-56.6-98h-3.5H784l-56.6-98h-3.5H614.5l-56.6-98H444.7l-56.6,98l56.6,98l-56.6,98l56.6,98l-56.6,98l56.6,98l-56.6,98l56.6,98l-56.6,98l56.6,98h113.2l56.6-98h109.4h3.5l56.6-98h106.2h3.5l56.6-98l-56.6-98l56.6-98L893.7,402z M777,402l-54.8,95H616l-54.8-95l54.8-95h106.2L777,402z M561.2,598l54.8-95h106.2l54.8,95l-54.8,95H616L561.2,598z M782.2,595l-54.8-95l54.8-95h106.2l54.8,95l-54.8,95H782.2z M891.9,209l54.8,95l-54.8,95l0,0l54.8-95L891.9,209L891.9,209z M888.4,209l54.8,95l-54.8,95H782.2l-54.8-95l54.8-95H888.4z M722.2,111l54.8,95l-54.8,95H616l-54.8-95l54.8-95H722.2z M391.7,108l54.8-95h109.7l54.8,95h-0.2l-54.8,95H446.5L391.7,108z M391.7,304l54.8-95h109.4l54.8,95l-54.8,95H446.5L391.7,304z M391.7,500l54.8-95h109.4l54.8,95l-54.8,95H446.5L391.7,500z M391.7,696l54.8-95h109.4l54.8,95l-54.8,95H446.5L391.7,696z M556.2,987H446.5l-54.8-95l54.8-95h109.4l54.8,95h0.2L556.2,987z M616,889l-54.8-95l54.8-95h106.2l54.8,95l-54.8,95H616z M782.2,791l-54.8-95l54.8-95h106.2l54.8,95l-54.8,95H782.2z M946.7,696l-54.8,95l0,0L946.7,696l-54.8-95l0,0L946.7,696z M891.9,595L891.9,595l54.8-95l-54.8-95l0,0l54.8,95L891.9,595z"/></g>
</svg>