<svg xmlns="http://www.w3.org/2000/svg" viewBox="0 0 512 512" style="height: 512px; width: 512px;"><defs><filter id="shadow-1" height="300%" width="300%" x="-100%" y="-100%"><feFlood flood-color="rgba(0, 0, 0, 1)" result="flood"></feFlood><feComposite in="flood" in2="SourceGraphic" operator="atop" result="composite"></feComposite>0<feOffset result="offset" dy="10"></feOffset><feComposite in2="offset" in="SourceGraphic" operator="over"></feComposite></filter></defs><path d="M0 0h512v512H0z" fill="#ffeedd" fill-opacity="0"></path><g class="" transform="translate(0,0)" style=""><path d="M253.8 15.56l-79.9 84.11 2.3 58.83 50.6 36.2 31.9 182 10.8-26.9 11.8-235.4 18.7 1-9.1 181 28.3-70.8 8.2-108 .9-17.93zm139 50.57l-46.6 50.77-3.9 51.1 10.6-26.2 30.4-13.7c3.2-20.6 6.3-41.3 9.5-61.97zm60.3 51.17l-85.7 38.4-102.6 255.9 14.6 83.3h7.8l147.6-293.1 16.7 8.4-143.4 284.7h24.4l146.6-291.8zm-340.2 18.9l-54.11 99.1 69.11 259.6h93.6l-51.1-274.8 18.3-3.4 51.8 278.2h19.9l-50.7-289.4zm358.3 260.4l-65.8-5.2-49.8 99.2 69.8-36.7zm-435.96-28l42.47 126.7h30.99L80.6 389.9z" fill="#f6f0f0" fill-opacity="1" filter="url(#shadow-1)"></path></g></svg>