<?xml version="1.0" ?><svg height="24px" version="1.1" viewBox="0 0 24 24" width="24px" xmlns="http://www.w3.org/2000/svg" xmlns:xlink="http://www.w3.org/1999/xlink"><title/><desc/><g fill="none" fill-rule="evenodd" id="icon/providence-solid" stroke="none" stroke-width="1"><path d="M13,13.5 C13,14.053 12.552,14.5 12,14.5 C11.448,14.5 11,14.053 11,13.5 C11,12.947 11.448,12.5 12,12.5 C12.552,12.5 13,12.947 13,13.5 L13,13.5 Z M12,16 C9.6,16 8,13.5 8,13.5 C8,13.5 9.6,11 12,11 C14.4,11 16,13.5 16,13.5 C16,13.5 14.4,16 12,16 L12,16 Z M12,1 L1,20 L23,20 L12,1 Z" fill="#000000" id="shape"/></g></svg>