<?xml version="1.0" ?><svg id="Layer_1" style="enable-background:new 0 0 106.744 245.625;" version="1.1" viewBox="0 0 106.744 245.625" xml:space="preserve" xmlns="http://www.w3.org/2000/svg" xmlns:xlink="http://www.w3.org/1999/xlink"><g><path d="M75.805,57.296l2.855-12.814l-0.473,0.125L59.66,49.482l-3.527,14.989l-0.963,4.095h-1.019l-0.963-4.095L49.66,49.482   l-18.527-4.875l-0.473-0.125l2.855,12.814c-8.441,2.982-29.416,17.995-30.937,93.429c-0.074,3.66,2.327,6.789,5.664,7.807v8.916H0   v48.062h21.846v-5.418c-4.624-0.836-8.403-1.84-10.185-3.028l-1.091-0.727l0.022-1.31c0.686-41.354,4.86-75.209,8.739-98.294h2.403   c-3.87,22.903-8.052,56.699-8.743,98.334c6,4,41.668,6,41.668,6s35.667-2,41.667-6c-0.691-41.635-4.874-75.431-8.744-98.334h2.402   c2.303,13.703,4.71,31.2,6.429,51.809c0.737,0.224,1.518,0.345,2.326,0.345c0.055,0,0.11-0.001,0.165-0.002   c4.417-0.089,7.926-3.742,7.837-8.159C105.221,75.292,84.247,60.278,75.805,57.296z M54.66,124.178c1.656,0,3,1.342,3,3   c0,1.656-1.344,3-3,3c-1.656,0-3-1.344-3-3C51.66,125.519,53.004,124.178,54.66,124.178z M54.66,107.623c-1.656,0-3-1.344-3-3   c0-1.658,1.344-3,3-3c1.656,0,3,1.342,3,3C57.66,106.279,56.317,107.623,54.66,107.623z M54.66,85.066c-1.656,0-3-1.342-3-3   c0-1.656,1.344-3,3-3c1.656,0,3,1.344,3,3C57.66,83.725,56.317,85.066,54.66,85.066z M54.66,152.732c-1.656,0-3-1.342-3-3   c0-1.656,1.344-3,3-3c1.656,0,3,1.344,3,3C57.66,151.391,56.317,152.732,54.66,152.732z"/><path d="M27.613,233.262c0,6.83,5.537,12.363,12.363,12.363c6.828,0,12.365-5.533,12.365-12.363v-19.929   c-5.149-0.32-15.574-1.068-24.729-2.334V233.262z"/><path d="M56.977,233.262c0,6.83,5.537,12.363,12.363,12.363c6.828,0,12.365-5.533,12.365-12.363v-22.262   c-9.155,1.266-19.58,2.013-24.729,2.334V233.262z"/><path d="M52.019,53.28c1.784,0.213,3.554,0.21,5.281,0.006l1.384-5.804l14.376-3.598c1.617-2.298,2.832-4.935,3.508-7.839   c0.897-3.852,0.742-7.702-0.271-11.254H33.023c-0.098,0.346-0.19,0.696-0.273,1.051c-1.512,6.495-0.041,12.986,3.515,18.044   l14.371,3.597L52.019,53.28z M62.451,30.093c3.13,0,5.667,1.194,5.667,2.667s-2.537,2.667-5.667,2.667s-5.667-1.194-5.667-2.667   S59.322,30.093,62.451,30.093z M41.201,32.76c0-1.473,2.537-2.667,5.667-2.667c3.13,0,5.667,1.194,5.667,2.667   s-2.537,2.667-5.667,2.667C43.738,35.426,41.201,34.233,41.201,32.76z"/><path d="M91.033,22.791v-3.375H75.944L74.77,5.332c0,0-6.998-5.332-20.111-5.332C41.547,0,34.547,5.332,34.547,5.332l-1.173,14.084   H18.283v3.375H91.033z"/></g></svg>