<?xml version="1.0" ?><svg height="68" viewBox="0 0 58 68" width="58" xmlns="http://www.w3.org/2000/svg"><path d="M96.9670117,72 C96.9670117,65.9278983 101.898735,61 107.967012,61 C114.039113,61 118.967012,65.9317236 118.967012,72 C118.967012,78.0721017 114.035288,83 107.967012,83 C101.89491,83 96.9670117,78.0682764 96.9670117,72 Z M105.967012,70 L102.976381,70 C102.418922,70 101.967012,70.4433532 101.967012,71.0093689 L101.967012,72.9906311 C101.967012,73.5480902 102.410365,74 102.976381,74 L105.967012,74 L105.967012,76.9906311 C105.967012,77.5480902 106.410365,78 106.976381,78 L108.957643,78 C109.515102,78 109.967012,77.5566468 109.967012,76.9906311 L109.967012,74 L112.957643,74 C113.515102,74 113.967012,73.5566468 113.967012,72.9906311 L113.967012,71.0093689 C113.967012,70.4519098 113.523659,70 112.957643,70 L109.967012,70 L109.967012,67.0093689 C109.967012,66.4519098 109.523659,66 108.957643,66 L106.976381,66 C106.418922,66 105.967012,66.4433532 105.967012,67.0093689 L105.967012,70 Z M77,122 L77,109 C77,108.447715 76.5522847,108 76,108 L74,108 C73.4477153,108 73,108.447715 73,109 L73,122 C73,123.104569 72.1045695,124 71,124 L67,124 C65.8954305,124 65,123.104569 65,122 L65,105 L63,105 C61.8954305,105 61,104.104569 61,103 L61,86 C61,81.581722 64.581722,78 69,78 L81,78 C85.418278,78 89,81.581722 89,86 L89,103 C89,104.104569 88.1045695,105 87,105 L85,105 L85,122 C85,123.104569 84.1045695,124 83,124 L79,124 C77.8954305,124 77,123.104569 77,122 Z M75,74 C70.0294373,74 66,69.9705627 66,65 C66,60.0294373 70.0294373,56 75,56 C79.9705627,56 84,60.0294373 84,65 C84,69.9705627 79.9705627,74 75,74 Z" fill="#000000" transform="translate(-61 -56)"/></svg>